<svg xmlns="http://www.w3.org/2000/svg" style="display: none;">

  <symbol id="html" viewBox="0 0 48 48">
  <path fill="#E65100" d="M41,5H7l3,34l14,4l14-4L41,5L41,5z"></path>
  <path fill="#FF6D00" d="M24 8L24 39.9 35.2 36.7 37.7 8z"></path>
  <path fill="#FFF" d="M24,25v-4h8.6l-0.7,11.5L24,35.1v-4.2l4.1-1.4l0.3-4.5H24z M32.9,17l0.3-4H24v4H32.9z"></path>
  <path fill="#EEE" d="M24,30.9v4.2l-7.9-2.6L15.7,27h4l0.2,2.5L24,30.9z M19.1,17H24v-4h-9.1l0.7,12H24v-4h-4.6L19.1,17z"></path>
</symbol>

<symbol id="css" viewBox="0 0 48 48">
  <path fill="#0277BD" d="M41,5H7l3,34l14,4l14-4L41,5L41,5z"></path>
  <path fill="#039BE5" d="M24 8L24 39.9 35.2 36.7 37.7 8z"></path>
  <path fill="#FFF" d="M33.1 13L24 13 24 17 28.9 17 28.6 21 24 21 24 25 28.4 25 28.1 29.5 24 30.9 24 35.1 31.9 32.5 32.6 21 32.6 21z"></path>
  <path fill="#EEE" d="M24,13v4h-8.9l-0.3-4H24z M19.4,21l0.2,4H24v-4H19.4z M19.8,27h-4l0.3,5.5l7.9,2.6v-4.2l-4.1-1.4L19.8,27z"></path>
</symbol>

<symbol id="java" viewBox="0 0 48 48">
<path fill="#F44336" d="M23.65,24.898c-0.998-1.609-1.722-2.943-2.725-5.455C19.229,15.2,31.24,11.366,26.37,3.999c2.111,5.089-7.577,8.235-8.477,12.473C17.07,20.37,23.645,24.898,23.65,24.898z"></path><path fill="#F44336" d="M23.878,17.27c-0.192,2.516,2.229,3.857,2.299,5.695c0.056,1.496-1.447,2.743-1.447,2.743s2.728-0.536,3.579-2.818c0.945-2.534-1.834-4.269-1.548-6.298c0.267-1.938,6.031-5.543,6.031-5.543S24.311,11.611,23.878,17.27z"></path><g><path fill="#1565C0" d="M32.084 25.055c1.754-.394 3.233.723 3.233 2.01 0 2.901-4.021 5.643-4.021 5.643s6.225-.742 6.225-5.505C37.521 24.053 34.464 23.266 32.084 25.055zM29.129 27.395c0 0 1.941-1.383 2.458-1.902-4.763 1.011-15.638 1.147-15.638.269 0-.809 3.507-1.638 3.507-1.638s-7.773-.112-7.773 2.181C11.683 28.695 21.858 28.866 29.129 27.395z"></path><path fill="#1565C0" d="M27.935,29.571c-4.509,1.499-12.814,1.02-10.354-0.993c-1.198,0-2.974,0.963-2.974,1.889c0,1.857,8.982,3.291,15.63,0.572L27.935,29.571z"></path><path fill="#1565C0" d="M18.686,32.739c-1.636,0-2.695,1.054-2.695,1.822c0,2.391,9.76,2.632,13.627,0.205l-2.458-1.632C24.271,34.404,17.014,34.579,18.686,32.739z"></path><path fill="#1565C0" d="M36.281,36.632c0-0.936-1.055-1.377-1.433-1.588c2.228,5.373-22.317,4.956-22.317,1.784c0-0.721,1.807-1.427,3.477-1.093l-1.42-0.839C11.26,34.374,9,35.837,9,37.017C9,42.52,36.281,42.255,36.281,36.632z"></path><path fill="#1565C0" d="M39,38.604c-4.146,4.095-14.659,5.587-25.231,3.057C24.341,46.164,38.95,43.628,39,38.604z"></path></g>
</symbol>

<symbol id="js" viewBox="0 0 48 48">
<path fill="#ffd600" d="M6,42V6h36v36H6z"></path><path fill="none" stroke="#000001" stroke-miterlimit="10" stroke-width="3.3" d="M23.783,22.352v9.819 c0,3.764-4.38,4.022-6.283,0.802"></path><path fill="none" stroke="#000001" stroke-miterlimit="10" stroke-width="3.3" d="M34.69,25.343 c-1.739-2.727-5.674-2.345-5.84,0.558c-0.214,3.757,6.768,2.938,6.247,7.107c-0.365,2.92-4.874,3.858-7.193-0.065"></path>
</symbol>

</svg>