<svg
  id="sw-js-blob-svg"
  viewBox="0 0 100 100"
  xmlns="http://www.w3.org/2000/svg"
  width="200"
  height="200"
>
  <defs>
    <linearGradient id="sw-gradient" x1="0" x2="1" y1="1" y2="0">
      <stop stop-color="rgba(248, 117, 55, 1)" offset="0%"></stop>
      <stop stop-color="rgba(251, 168, 31, 1)" offset="100%"></stop>
    </linearGradient>
  </defs>

  <style>
    svg {
      animation: spin 5s both infinite;
      transform-origin: 50% 50%;
    }

    @keyframes spin {
      0% {
        transform: rotate(0deg) translate(0, 0);
        filter: drop-shadow(0 0 5px rgb(49, 208, 195));
      }
      100% {
        transform: rotate(360deg);
        filter: drop-shadow(0 0 5px rgb(102, 176, 187));
      }
    }
  </style>

  <path
    fill="url(#sw-gradient)"
    d="M26.6,-31.8C34.1,-25.5,39.3,-16.7,40.5,-7.5C41.7,1.7,38.8,11.2,33.6,18.6C28.4,26,20.8,31.2,12.1,35.1C3.4,39.1,-6.4,41.8,-14.4,39.1C-22.4,36.3,-28.6,28.2,-33.4,19.5C-38.3,10.7,-41.9,1.3,-40.7,-7.5C-39.5,-16.3,-33.6,-24.7,-26,-31C-18.5,-37.3,-9.2,-41.6,0.2,-41.8C9.6,-42,19.2,-38.2,26.6,-31.8Z"
    transform="translate(50 50)"
    stroke-width="0"
  />
</svg>