<svg xmlns="http://www.w3.org/2000/svg" style="display: none;">

    <symbol id="html" viewBox="0 0 48 48">
        <path fill="#E65100" d="M41,5H7l3,34l14,4l14-4L41,5L41,5z"></path>
        <path fill="#FF6D00" d="M24 8L24 39.9 35.2 36.7 37.7 8z"></path>
        <path fill="#FFF"
            d="M24,25v-4h8.6l-0.7,11.5L24,35.1v-4.2l4.1-1.4l0.3-4.5H24z M32.9,17l0.3-4H24v4H32.9z"></path>
        <path fill="#EEE"
            d="M24,30.9v4.2l-7.9-2.6L15.7,27h4l0.2,2.5L24,30.9z M19.1,17H24v-4h-9.1l0.7,12H24v-4h-4.6L19.1,17z"></path>
    </symbol>

    <symbol id="css" viewBox="0 0 48 48">
        <path fill="#0277BD" d="M41,5H7l3,34l14,4l14-4L41,5L41,5z"></path>
        <path fill="#039BE5" d="M24 8L24 39.9 35.2 36.7 37.7 8z"></path>
        <path fill="#FFF"
            d="M33.1 13L24 13 24 17 28.9 17 28.6 21 24 21 24 25 28.4 25 28.1 29.5 24 30.9 24 35.1 31.9 32.5 32.6 21 32.6 21z"></path>
        <path fill="#EEE"
            d="M24,13v4h-8.9l-0.3-4H24z M19.4,21l0.2,4H24v-4H19.4z M19.8,27h-4l0.3,5.5l7.9,2.6v-4.2l-4.1-1.4L19.8,27z"></path>
    </symbol>

    <symbol id="java" viewBox="0 0 48 48">
        <!-- Fondo circular -->
        <circle cx="24" cy="24" r="24" fill="white" />

        <!-- Logo de Java -->
        <path fill="#F44336"
            d="M23.65,24.898c-0.998-1.609-1.722-2.943-2.725-5.455C19.229,15.2,31.24,11.366,26.37,3.999c2.111,5.089-7.577,8.235-8.477,12.473C17.07,20.37,23.645,24.898,23.65,24.898z"></path>
        <path fill="#F44336"
            d="M23.878,17.27c-0.192,2.516,2.229,3.857,2.299,5.695c0.056,1.496-1.447,2.743-1.447,2.743s2.728-0.536,3.579-2.818c0.945-2.534-1.834-4.269-1.548-6.298c0.267-1.938,6.031-5.543,6.031-5.543S24.311,11.611,23.878,17.27z"></path>
        <g>
            <path fill="#1565C0"
                d="M32.084 25.055c1.754-.394 3.233.723 3.233 2.01 0 2.901-4.021 5.643-4.021 5.643s6.225-.742 6.225-5.505C37.521 24.053 34.464 23.266 32.084 25.055zM29.129 27.395c0 0 1.941-1.383 2.458-1.902-4.763 1.011-15.638 1.147-15.638.269 0-.809 3.507-1.638 3.507-1.638s-7.773-.112-7.773 2.181C11.683 28.695 21.858 28.866 29.129 27.395z"></path>
            <path fill="#1565C0"
                d="M27.935,29.571c-4.509,1.499-12.814,1.02-10.354-0.993c-1.198,0-2.974,0.963-2.974,1.889c0,1.857,8.982,3.291,15.63,0.572L27.935,29.571z"></path>
            <path fill="#1565C0"
                d="M18.686,32.739c-1.636,0-2.695,1.054-2.695,1.822c0,2.391,9.76,2.632,13.627,0.205l-2.458-1.632C24.271,34.404,17.014,34.579,18.686,32.739z"></path>
            <path fill="#1565C0"
                d="M36.281,36.632c0-0.936-1.055-1.377-1.433-1.588c2.228,5.373-22.317,4.956-22.317,1.784c0-0.721,1.807-1.427,3.477-1.093l-1.42-0.839C11.26,34.374,9,35.837,9,37.017C9,42.52,36.281,42.255,36.281,36.632z"></path>
            <path fill="#1565C0"
                d="M39,38.604c-4.146,4.095-14.659,5.587-25.231,3.057C24.341,46.164,38.95,43.628,39,38.604z"></path>
        </g>
    </symbol>


    <symbol id="js" viewBox="0 0 48 48">
        <path fill="#ffd600" d="M6,42V6h36v36H6z"></path>
        <path fill="none" stroke="#000001" stroke-miterlimit="10" stroke-width="3.3"
            d="M23.783,22.352v9.819 c0,3.764-4.38,4.022-6.283,0.802"></path>
        <path fill="none" stroke="#000001" stroke-miterlimit="10" stroke-width="3.3"
            d="M34.69,25.343 c-1.739-2.727-5.674-2.345-5.84,0.558c-0.214,3.757,6.768,2.938,6.247,7.107c-0.365,2.92-4.874,3.858-7.193-0.065"></path>
    </symbol>


    <symbol viewBox="0 0 48 48" id="tw" xmlns="http://www.w3.org/2000/svg">
        <path fill="#00acc1"
            d="M24 9.604c-6.4 0-10.4 3.199-12 9.597 2.4-3.199 5.2-4.398 8.4-3.599 1.826.456 3.131 1.781 4.576 3.247C27.328 21.236 30.051 24 36 24c6.4 0 10.4-3.199 12-9.598-2.4 3.199-5.2 4.399-8.4 3.6-1.825-.456-3.13-1.781-4.575-3.247C32.672 12.367 29.948 9.604 24 9.604zM12 24c-6.4 0-10.4 3.199-12 9.598 2.4-3.199 5.2-4.399 8.4-3.599 1.825.457 3.13 1.781 4.575 3.246 2.353 2.388 5.077 5.152 11.025 5.152 6.4 0 10.4-3.199 12-9.598-2.4 3.199-5.2 4.399-8.4 3.599-1.826-.456-3.131-1.781-4.576-3.246C20.672 26.764 17.949 24 12 24z" />
    </symbol>


    <symbol viewBox="0 -14 256 256" preserveAspectRatio="xMidYMid" id="react"
        xmlns="http://www.w3.org/2000/svg">
        <path
            d="M210.483 73.824a171.49 171.49 0 0 0-8.24-2.597c.465-1.9.893-3.777 1.273-5.621 6.238-30.281 2.16-54.676-11.769-62.708-13.355-7.7-35.196.329-57.254 19.526a171.23 171.23 0 0 0-6.375 5.848 155.866 155.866 0 0 0-4.241-3.917C100.759 3.829 77.587-4.822 63.673 3.233 50.33 10.957 46.379 33.89 51.995 62.588a170.974 170.974 0 0 0 1.892 8.48c-3.28.932-6.445 1.924-9.474 2.98C17.309 83.498 0 98.307 0 113.668c0 15.865 18.582 31.778 46.812 41.427a145.52 145.52 0 0 0 6.921 2.165 167.467 167.467 0 0 0-2.01 9.138c-5.354 28.2-1.173 50.591 12.134 58.266 13.744 7.926 36.812-.22 59.273-19.855a145.567 145.567 0 0 0 5.342-4.923 168.064 168.064 0 0 0 6.92 6.314c21.758 18.722 43.246 26.282 56.54 18.586 13.731-7.949 18.194-32.003 12.4-61.268a145.016 145.016 0 0 0-1.535-6.842c1.62-.48 3.21-.974 4.76-1.488 29.348-9.723 48.443-25.443 48.443-41.52 0-15.417-17.868-30.326-45.517-39.844Zm-6.365 70.984c-1.4.463-2.836.91-4.3 1.345-3.24-10.257-7.612-21.163-12.963-32.432 5.106-11 9.31-21.767 12.459-31.957 2.619.758 5.16 1.557 7.61 2.4 23.69 8.156 38.14 20.213 38.14 29.504 0 9.896-15.606 22.743-40.946 31.14Zm-10.514 20.834c2.562 12.94 2.927 24.64 1.23 33.787-1.524 8.219-4.59 13.698-8.382 15.893-8.067 4.67-25.32-1.4-43.927-17.412a156.726 156.726 0 0 1-6.437-5.87c7.214-7.889 14.423-17.06 21.459-27.246 12.376-1.098 24.068-2.894 34.671-5.345.522 2.107.986 4.173 1.386 6.193ZM87.276 214.515c-7.882 2.783-14.16 2.863-17.955.675-8.075-4.657-11.432-22.636-6.853-46.752a156.923 156.923 0 0 1 1.869-8.499c10.486 2.32 22.093 3.988 34.498 4.994 7.084 9.967 14.501 19.128 21.976 27.15a134.668 134.668 0 0 1-4.877 4.492c-9.933 8.682-19.886 14.842-28.658 17.94ZM50.35 144.747c-12.483-4.267-22.792-9.812-29.858-15.863-6.35-5.437-9.555-10.836-9.555-15.216 0-9.322 13.897-21.212 37.076-29.293 2.813-.98 5.757-1.905 8.812-2.773 3.204 10.42 7.406 21.315 12.477 32.332-5.137 11.18-9.399 22.249-12.634 32.792a134.718 134.718 0 0 1-6.318-1.979Zm12.378-84.26c-4.811-24.587-1.616-43.134 6.425-47.789 8.564-4.958 27.502 2.111 47.463 19.835a144.318 144.318 0 0 1 3.841 3.545c-7.438 7.987-14.787 17.08-21.808 26.988-12.04 1.116-23.565 2.908-34.161 5.309a160.342 160.342 0 0 1-1.76-7.887Zm110.427 27.268a347.8 347.8 0 0 0-7.785-12.803c8.168 1.033 15.994 2.404 23.343 4.08-2.206 7.072-4.956 14.465-8.193 22.045a381.151 381.151 0 0 0-7.365-13.322Zm-45.032-43.861c5.044 5.465 10.096 11.566 15.065 18.186a322.04 322.04 0 0 0-30.257-.006c4.974-6.559 10.069-12.652 15.192-18.18ZM82.802 87.83a323.167 323.167 0 0 0-7.227 13.238c-3.184-7.553-5.909-14.98-8.134-22.152 7.304-1.634 15.093-2.97 23.209-3.984a321.524 321.524 0 0 0-7.848 12.897Zm8.081 65.352c-8.385-.936-16.291-2.203-23.593-3.793 2.26-7.3 5.045-14.885 8.298-22.6a321.187 321.187 0 0 0 7.257 13.246c2.594 4.48 5.28 8.868 8.038 13.147Zm37.542 31.03c-5.184-5.592-10.354-11.779-15.403-18.433 4.902.192 9.899.29 14.978.29 5.218 0 10.376-.117 15.453-.343-4.985 6.774-10.018 12.97-15.028 18.486Zm52.198-57.817c3.422 7.8 6.306 15.345 8.596 22.52-7.422 1.694-15.436 3.058-23.88 4.071a382.417 382.417 0 0 0 7.859-13.026 347.403 347.403 0 0 0 7.425-13.565Zm-16.898 8.101a358.557 358.557 0 0 1-12.281 19.815 329.4 329.4 0 0 1-23.444.823c-7.967 0-15.716-.248-23.178-.732a310.202 310.202 0 0 1-12.513-19.846h.001a307.41 307.41 0 0 1-10.923-20.627 310.278 310.278 0 0 1 10.89-20.637l-.001.001a307.318 307.318 0 0 1 12.413-19.761c7.613-.576 15.42-.876 23.31-.876H128c7.926 0 15.743.303 23.354.883a329.357 329.357 0 0 1 12.335 19.695 358.489 358.489 0 0 1 11.036 20.54 329.472 329.472 0 0 1-11 20.722Zm22.56-122.124c8.572 4.944 11.906 24.881 6.52 51.026-.344 1.668-.73 3.367-1.15 5.09-10.622-2.452-22.155-4.275-34.23-5.408-7.034-10.017-14.323-19.124-21.64-27.008a160.789 160.789 0 0 1 5.888-5.4c18.9-16.447 36.564-22.941 44.612-18.3ZM128 90.808c12.625 0 22.86 10.235 22.86 22.86s-10.235 22.86-22.86 22.86-22.86-10.235-22.86-22.86 10.235-22.86 22.86-22.86Z"
            fill="#00D8FF" />
    </symbol>


    <symbol viewBox="-4 0 264 264" preserveAspectRatio="xMinYMin meet" id="pg"
        xmlns="http://www.w3.org/2000/svg">
        <path
            d="M255.008 158.086c-1.535-4.649-5.556-7.887-10.756-8.664-2.452-.366-5.26-.21-8.583.475-5.792 1.195-10.089 1.65-13.225 1.738 11.837-19.985 21.462-42.775 27.003-64.228 8.96-34.689 4.172-50.492-1.423-57.64C233.217 10.847 211.614.683 185.552.372c-13.903-.17-26.108 2.575-32.475 4.549-5.928-1.046-12.302-1.63-18.99-1.738-12.537-.2-23.614 2.533-33.079 8.15-5.24-1.772-13.65-4.27-23.362-5.864-22.842-3.75-41.252-.828-54.718 8.685C6.622 25.672-.937 45.684.461 73.634c.444 8.874 5.408 35.874 13.224 61.48 4.492 14.718 9.282 26.94 14.237 36.33 7.027 13.315 14.546 21.156 22.987 23.972 4.731 1.576 13.327 2.68 22.368-4.85 1.146 1.388 2.675 2.767 4.704 4.048 2.577 1.625 5.728 2.953 8.875 3.74 11.341 2.835 21.964 2.126 31.027-1.848.056 1.612.099 3.152.135 4.482.06 2.157.12 4.272.199 6.25.537 13.374 1.447 23.773 4.143 31.049.148.4.347 1.01.557 1.657 1.345 4.118 3.594 11.012 9.316 16.411 5.925 5.593 13.092 7.308 19.656 7.308 3.292 0 6.433-.432 9.188-1.022 9.82-2.105 20.973-5.311 29.041-16.799 7.628-10.86 11.336-27.217 12.007-52.99.087-.729.167-1.425.244-2.088l.16-1.362 1.797.158.463.031c10.002.456 22.232-1.665 29.743-5.154 5.935-2.754 24.954-12.795 20.476-26.351" />
        <path
            d="M237.906 160.722c-29.74 6.135-31.785-3.934-31.785-3.934 31.4-46.593 44.527-105.736 33.2-120.211-30.904-39.485-84.399-20.811-85.292-20.327l-.287.052c-5.876-1.22-12.451-1.946-19.842-2.067-13.456-.22-23.664 3.528-31.41 9.402 0 0-95.43-39.314-90.991 49.444.944 18.882 27.064 142.873 58.218 105.422 11.387-13.695 22.39-25.274 22.39-25.274 5.464 3.63 12.006 5.482 18.864 4.817l.533-.452c-.166 1.7-.09 3.363.213 5.332-8.026 8.967-5.667 10.541-21.711 13.844-16.235 3.346-6.698 9.302-.471 10.86 7.549 1.887 25.013 4.561 36.813-11.958l-.47 1.885c3.144 2.519 5.352 16.383 4.982 28.952-.37 12.568-.617 21.197 1.86 27.937 2.479 6.74 4.948 21.905 26.04 17.386 17.623-3.777 26.756-13.564 28.027-29.89.901-11.606 2.942-9.89 3.07-20.267l1.637-4.912c1.887-15.733.3-20.809 11.157-18.448l2.64.232c7.99.363 18.45-1.286 24.589-4.139 13.218-6.134 21.058-16.377 8.024-13.686h.002"
            fill="#336791" />
        <path
            d="M108.076 81.525c-2.68-.373-5.107-.028-6.335.902-.69.523-.904 1.129-.962 1.546-.154 1.105.62 2.327 1.096 2.957 1.346 1.784 3.312 3.01 5.258 3.28.282.04.563.058.842.058 3.245 0 6.196-2.527 6.456-4.392.325-2.336-3.066-3.893-6.355-4.35m88.784.073c-.256-1.831-3.514-2.353-6.606-1.923-3.088.43-6.082 1.824-5.832 3.659.2 1.427 2.777 3.863 5.827 3.863.258 0 .518-.017.78-.054 2.036-.282 3.53-1.575 4.24-2.32 1.08-1.136 1.706-2.402 1.591-3.225"
            fill="#FFF" />
        <path
            d="M247.802 160.025c-1.134-3.429-4.784-4.532-10.848-3.28-18.005 3.716-24.453 1.142-26.57-.417 13.995-21.32 25.508-47.092 31.719-71.137 2.942-11.39 4.567-21.968 4.7-30.59.147-9.463-1.465-16.417-4.789-20.665-13.402-17.125-33.072-26.311-56.882-26.563-16.369-.184-30.199 4.005-32.88 5.183-5.646-1.404-11.801-2.266-18.502-2.376-12.288-.199-22.91 2.743-31.704 8.74-3.82-1.422-13.692-4.811-25.765-6.756-20.872-3.36-37.458-.814-49.294 7.571-14.123 10.006-20.643 27.892-19.38 53.16.425 8.501 5.269 34.653 12.913 59.698 10.062 32.964 21 51.625 32.508 55.464 1.347.449 2.9.763 4.613.763 4.198 0 9.345-1.892 14.7-8.33a529.832 529.832 0 0 1 20.261-22.926c4.524 2.428 9.494 3.784 14.577 3.92.01.133.023.266.035.398a117.66 117.66 0 0 0-2.57 3.175c-3.522 4.471-4.255 5.402-15.592 7.736-3.225.666-11.79 2.431-11.916 8.435-.136 6.56 10.125 9.315 11.294 9.607 4.074 1.02 7.999 1.523 11.742 1.523 9.103 0 17.114-2.992 23.516-8.781-.197 23.386.778 46.43 3.586 53.451 2.3 5.748 7.918 19.795 25.664 19.794 2.604 0 5.47-.303 8.623-.979 18.521-3.97 26.564-12.156 29.675-30.203 1.665-9.645 4.522-32.676 5.866-45.03 2.836.885 6.487 1.29 10.434 1.289 8.232 0 17.731-1.749 23.688-4.514 6.692-3.108 18.768-10.734 16.578-17.36zm-44.106-83.48c-.061 3.647-.563 6.958-1.095 10.414-.573 3.717-1.165 7.56-1.314 12.225-.147 4.54.42 9.26.968 13.825 1.108 9.22 2.245 18.712-2.156 28.078a36.508 36.508 0 0 1-1.95-4.009c-.547-1.326-1.735-3.456-3.38-6.404-6.399-11.476-21.384-38.35-13.713-49.316 2.285-3.264 8.084-6.62 22.64-4.813zm-17.644-61.787c21.334.471 38.21 8.452 50.158 23.72 9.164 11.711-.927 64.998-30.14 110.969a171.33 171.33 0 0 0-.886-1.117l-.37-.462c7.549-12.467 6.073-24.802 4.759-35.738-.54-4.488-1.05-8.727-.92-12.709.134-4.22.692-7.84 1.232-11.34.663-4.313 1.338-8.776 1.152-14.037.139-.552.195-1.204.122-1.978-.475-5.045-6.235-20.144-17.975-33.81-6.422-7.475-15.787-15.84-28.574-21.482 5.5-1.14 13.021-2.203 21.442-2.016zM66.674 175.778c-5.9 7.094-9.974 5.734-11.314 5.288-8.73-2.912-18.86-21.364-27.791-50.624-7.728-25.318-12.244-50.777-12.602-57.916-1.128-22.578 4.345-38.313 16.268-46.769 19.404-13.76 51.306-5.524 64.125-1.347-.184.182-.376.352-.558.537-21.036 21.244-20.537 57.54-20.485 59.759-.002.856.07 2.068.168 3.735.362 6.105 1.036 17.467-.764 30.334-1.672 11.957 2.014 23.66 10.111 32.109a36.275 36.275 0 0 0 2.617 2.468c-3.604 3.86-11.437 12.396-19.775 22.426zm22.479-29.993c-6.526-6.81-9.49-16.282-8.133-25.99 1.9-13.592 1.199-25.43.822-31.79-.053-.89-.1-1.67-.127-2.285 3.073-2.725 17.314-10.355 27.47-8.028 4.634 1.061 7.458 4.217 8.632 9.645 6.076 28.103.804 39.816-3.432 49.229-.873 1.939-1.698 3.772-2.402 5.668l-.546 1.466c-1.382 3.706-2.668 7.152-3.465 10.424-6.938-.02-13.687-2.984-18.819-8.34zm1.065 37.9c-2.026-.506-3.848-1.385-4.917-2.114.893-.42 2.482-.992 5.238-1.56 13.337-2.745 15.397-4.683 19.895-10.394 1.031-1.31 2.2-2.794 3.819-4.602l.002-.002c2.411-2.7 3.514-2.242 5.514-1.412 1.621.67 3.2 2.702 3.84 4.938.303 1.056.643 3.06-.47 4.62-9.396 13.156-23.088 12.987-32.921 10.526zm69.799 64.952c-16.316 3.496-22.093-4.829-25.9-14.346-2.457-6.144-3.665-33.85-2.808-64.447.011-.407-.047-.8-.159-1.17a15.444 15.444 0 0 0-.456-2.162c-1.274-4.452-4.379-8.176-8.104-9.72-1.48-.613-4.196-1.738-7.46-.903.696-2.868 1.903-6.107 3.212-9.614l.549-1.475c.618-1.663 1.394-3.386 2.214-5.21 4.433-9.848 10.504-23.337 3.915-53.81-2.468-11.414-10.71-16.988-23.204-15.693-7.49.775-14.343 3.797-17.761 5.53-.735.372-1.407.732-2.035 1.082.954-11.5 4.558-32.992 18.04-46.59 8.489-8.56 19.794-12.788 33.568-12.56 27.14.444 44.544 14.372 54.366 25.979 8.464 10.001 13.047 20.076 14.876 25.51-13.755-1.399-23.11 1.316-27.852 8.096-10.317 14.748 5.644 43.372 13.315 57.129 1.407 2.521 2.621 4.7 3.003 5.626 2.498 6.054 5.732 10.096 8.093 13.046.724.904 1.426 1.781 1.96 2.547-4.166 1.201-11.649 3.976-10.967 17.847-.55 6.96-4.461 39.546-6.448 51.059-2.623 15.21-8.22 20.875-23.957 24.25zm68.104-77.936c-4.26 1.977-11.389 3.46-18.161 3.779-7.48.35-11.288-.838-12.184-1.569-.42-8.644 2.797-9.547 6.202-10.503.535-.15 1.057-.297 1.561-.473.313.255.656.508 1.032.756 6.012 3.968 16.735 4.396 31.874 1.271l.166-.033c-2.042 1.909-5.536 4.471-10.49 6.772z"
            fill="#FFF" />
    </symbol>

    <symbol viewBox="0 0 204.8 105.765" id="mysql" xmlns="http://www.w3.org/2000/svg">
        <path
            d="M0 96.334h6.747V69.7l10.445 23.227c1.232 2.8 2.92 3.806 6.228 3.806s4.93-.995 6.164-3.806L40.03 69.7v26.644h6.748v-26.6c0-2.595-1.04-3.85-3.18-4.498-5.125-1.6-8.564-.216-10.12 3.244l-10.25 22.923L13.3 68.48c-1.492-3.46-4.995-4.844-10.12-3.244C1.038 65.885 0 67.14 0 69.734v26.6zm52.386-21.686h6.745v14.68c-.063.798.256 2.67 3.952 2.727 1.886.03 14.554 0 14.672 0v-17.48h6.76c.03 0-.007 23.834-.006 23.936.037 5.878-7.294 7.155-10.672 7.254H52.533v-4.54l21.342-.001c4.342-.46 3.83-2.617 3.83-3.344v-1.77h-14.34c-6.672-.06-10.92-2.973-10.973-6.323-.005-.3.144-14.995-.004-15.14z"
            fill="#00618a" />
        <path
            d="M89.716 96.334h19.398c2.27 0 4.477-.475 6.23-1.298 2.92-1.34 4.347-3.157 4.347-5.536v-4.93c0-1.947-1.622-3.763-4.8-4.974-1.687-.65-3.763-.995-5.774-.995h-8.175c-2.724 0-4.022-.822-4.346-2.638-.065-.216-.065-.4-.065-.606v-3.07c0-.173 0-.347.065-.563.324-1.384 1.038-1.774 3.438-2 .195 0 .454-.044.65-.044h19.268v-4.497h-18.944c-2.725 0-4.152.173-5.45.562C91.532 67 89.78 69 89.78 72.46v3.936c0 3.028 3.44 5.623 9.212 6.228.65.043 1.298.086 1.946.086h7.007c.26 0 .52 0 .714.044 2.14.173 3.05.562 3.698 1.34.4.4.52.78.52 1.2v3.936c0 .476-.324 1.082-.973 1.6-.584.52-1.557.865-2.855.952-.26 0-.454.043-.713.043h-18.62v4.498zm72.064-7.828c0 4.628 3.438 7.223 10.38 7.742a29.45 29.45 0 0 0 1.946.086h17.582v-4.498h-17.712c-3.957 0-5.45-.995-5.45-3.374v-23.27h-6.747v23.312zm-37.785.234V72.705c0-4.074 2.86-6.545 8.516-7.325a12.94 12.94 0 0 1 1.821-.13h12.807a13.87 13.87 0 0 1 1.886.13c5.656.78 8.516 3.25 8.516 7.325V88.74c0 3.305-1.215 5.074-4.015 6.227l6.646 6h-7.834l-5.377-4.854-5.413.343h-7.216c-1.235 0-2.535-.174-3.966-.564-4.3-1.17-6.37-3.424-6.37-7.152zm7.283-.4c0 .217.065.433.13.694.4 1.864 2.145 2.904 4.8 2.904h6.13l-5.63-5.083h7.834l4.9 4.433c.905-.482 1.5-1.22 1.7-2.167.065-.216.065-.433.065-.65V73.096c0-.173 0-.4-.065-.607-.4-1.733-2.146-2.73-4.746-2.73H136.22c-3 0-4.94 1.3-4.94 3.337v15.256z"
            fill="#e48e00" />
        <g fill="#00618a">
            <path
                d="M197.624 57.73c-4.147-.112-7.316.273-10.024 1.415-.77.325-1.997.333-2.123 1.298.423.443.49 1.105.825 1.65.647 1.047 1.74 2.45 2.713 3.184 1.064.803 2.16 1.663 3.303 2.36 2.03 1.238 4.296 1.945 6.25 3.184 1.152.73 2.296 1.65 3.42 2.476.555.408.93 1.042 1.65 1.297v-.118c-.38-.483-.477-1.147-.825-1.65l-1.533-1.533c-1.5-2-3.402-3.737-5.425-5.19-1.613-1.158-5.224-2.722-5.897-4.6l-.118-.118c1.144-.13 2.483-.543 3.54-.825 1.773-.475 3.358-.353 5.19-.825l2.477-.708v-.472c-.926-.95-1.586-2.207-2.595-3.066-2.64-2.25-5.523-4.495-8.49-6.37-1.646-1.04-3.68-1.714-5.425-2.595-.587-.296-1.618-.45-2.005-.944-.916-1.168-1.415-2.65-2.122-4-1.48-2.85-2.934-5.964-4.246-8.963-.895-2.045-1.48-4.062-2.594-5.897-5.355-8.804-11.12-14.118-20.048-19.34-1.9-1.11-4.187-1.55-6.605-2.123l-3.892-.236c-.792-.33-1.616-1.3-2.36-1.77-2.958-1.87-10.545-5.933-12.736-.6-1.383 3.373 2.067 6.664 3.302 8.374.866 1.2 1.976 2.543 2.594 3.892.407.886.478 1.775.826 2.713.857 2.3 1.603 4.823 2.712 6.958.56 1.08 1.178 2.218 1.887 3.184.435.593 1.18.854 1.297 1.77-.728 1.02-.77 2.6-1.18 3.892-1.843 5.812-1.148 13.035 1.533 17.337.823 1.32 2.76 4.152 5.425 3.066 2.33-.95 1.8-3.89 2.477-6.486.15-.59.058-1.02.354-1.415v.118l2.123 4.245c1.57 2.53 4.36 5.175 6.722 6.96 1.225.925 2.2 2.525 3.774 3.066v-.118h-.118c-.307-.48-.787-.677-1.18-1.06-.923-.905-1.95-2.03-2.713-3.066-2.15-2.918-4.048-6.11-5.778-9.435-.826-1.587-1.545-3.338-2.24-4.953-.268-.623-.265-1.564-.825-1.887-.763 1.184-1.887 2.14-2.477 3.538-.944 2.234-1.066 4.958-1.415 7.784-.207.074-.115.023-.236.118-1.642-.396-2.22-2.087-2.83-3.538-1.544-3.67-1.83-9.576-.472-13.798.35-1.092 1.94-4.534 1.297-5.543-.307-1.007-1.32-1.6-1.887-2.36-.7-.95-1.402-2.204-1.887-3.302-1.264-2.86-1.854-6.07-3.184-8.963-.636-1.382-1.71-2.78-2.594-4-.978-1.36-2.073-2.364-2.83-4-.27-.585-.636-1.52-.236-2.123a.93.93 0 0 1 .708-.708c.684-.527 2.59.175 3.302.472 1.89.786 3.47 1.534 5.072 2.595.77.5 1.547 1.496 2.476 1.77h1.06c1.66.382 3.52.12 5.07.59 2.742.833 5.198 2.13 7.43 3.538 6.798 4.292 12.355 10.402 16.157 17.7.612 1.173.876 2.294 1.415 3.538 1.087 2.5 2.456 5.093 3.538 7.547 1.08 2.45 2.13 4.92 3.656 6.958.802 1.07 3.9 1.646 5.307 2.24.987.417 2.603.852 3.538 1.415 1.785 1.077 3.515 2.36 5.19 3.54.837.59 3.41 1.883 3.538 2.948z" />
            <path
                d="M144.91 12.798c-.865-.016-1.476.094-2.123.236v.118h.118c.412.848 1.14 1.393 1.65 2.123l1.18 2.476.118-.118c.73-.515 1.065-1.338 1.06-2.595-.293-.308-.336-.694-.59-1.062-.337-.49-1-.768-1.415-1.18z"
                fill-rule="evenodd" />
        </g>
        <path
            d="M194.855 91.708c0 2.97 2.347 4.972 4.972 4.972s4.972-2.002 4.972-4.972-2.347-4.972-4.972-4.972-4.972 2.002-4.972 4.972zm8.83 0c0 2.254-1.723 3.938-3.86 3.938-2.16 0-3.86-1.684-3.86-3.938s1.698-3.938 3.86-3.938c2.135 0 3.86 1.684 3.86 3.938zm-2.52 2.838h1.113l-1.63-2.492c.875-.093 1.537-.518 1.537-1.552 0-1.154-.73-1.63-2.134-1.63h-2.215v5.675h.955v-2.453h.888l1.485 2.453zm-2.374-3.25v-1.63h1.1c.57 0 1.26.106 1.26.77 0 .795-.623.862-1.34.862h-1.02z"
            fill="#e48e00" fill-rule="evenodd" />
    </symbol>

    <symbol viewBox="0 0 32 32" id="node" xmlns="http://www.w3.org/2000/svg">
        <path
            d="M16 30a2.151 2.151 0 0 1-1.076-.288L11.5 27.685c-.511-.286-.262-.387-.093-.446a6.828 6.828 0 0 0 1.549-.7.263.263 0 0 1 .255.019l2.631 1.563a.34.34 0 0 0 .318 0l10.26-5.922a.323.323 0 0 0 .157-.278V10.075a.331.331 0 0 0-.159-.283l-10.26-5.917a.323.323 0 0 0-.317 0L5.587 9.794a.33.33 0 0 0-.162.281v11.841a.315.315 0 0 0 .161.274L8.4 23.814c1.525.762 2.459-.136 2.459-1.038V11.085a.3.3 0 0 1 .3-.3h1.3a.3.3 0 0 1 .3.3v11.692c0 2.035-1.108 3.2-3.038 3.2a4.389 4.389 0 0 1-2.363-.642l-2.697-1.547a2.166 2.166 0 0 1-1.076-1.872V10.075A2.162 2.162 0 0 1 4.661 8.2l10.261-5.924a2.246 2.246 0 0 1 2.156 0L27.338 8.2a2.165 2.165 0 0 1 1.077 1.87v11.846a2.171 2.171 0 0 1-1.077 1.872l-10.26 5.924A2.152 2.152 0 0 1 16 30Z"
            style="fill:#83cd29" />
        <path
            d="M14.054 17.953a.3.3 0 0 1 .3-.3h1.327a.3.3 0 0 1 .295.251c.2 1.351.8 2.032 3.513 2.032 2.161 0 3.082-.489 3.082-1.636 0-.661-.261-1.152-3.62-1.481-2.808-.278-4.544-.9-4.544-3.144 0-2.07 1.745-3.305 4.67-3.305 3.287 0 4.914 1.141 5.12 3.589a.3.3 0 0 1-.295.323h-1.336a.3.3 0 0 1-.288-.232c-.319-1.421-1.1-1.875-3.2-1.875-2.36 0-2.634.822-2.634 1.438 0 .746.324.964 3.51 1.385 3.153.417 4.651 1.007 4.651 3.223 0 2.236-1.864 3.516-5.115 3.516-4.495.006-5.436-2.055-5.436-3.784Z"
            style="fill:#83cd29" />
    </symbol>

</svg>